# This file uses centimeters as units for non-parametric coordinates.

mtllib tree.mtl
g default
v -0.944460 4.317272 -0.088335
v 0.299116 4.317272 0.828384
v 0.471230 4.317272 -0.706944
v -0.058038 4.524717 0.011035
vt 0.421875 0.708434
vt 0.421875 0.979066
vt 0.656250 0.843750
vt 0.500000 0.837500
vn -0.225114 0.974006 -0.025236
vn 0.090702 0.974006 0.207573
vn 0.000000 1.000000 0.000000
vn 0.134412 0.974006 -0.182337
s 1
g pCylinder9
usemtl initialShadingGroup
f 1/2/1 2/1/2 4/4/3
f 2/1/2 3/3/4 4/4/3
f 3/3/4 1/2/1 4/4/3
g default
v -1.352178 1.704270 -2.138779
v -1.352179 1.704270 2.138779
v 2.352295 1.704270 0.000000
v -0.117354 2.145929 0.000000
vt 0.421875 0.708434
vt 0.421875 0.979066
vt 0.656250 0.843750
vt 0.500000 0.837500
vn -0.088021 0.984383 -0.152456
vn -0.088021 0.984383 0.152456
vn -0.000000 1.000000 0.000000
vn 0.176042 0.984383 0.000000
s 1
g pCylinder2
usemtl initialShadingGroup
f 5/6/5 6/5/6 8/8/7
f 6/5/6 7/7/8 8/8/7
f 7/7/8 5/6/5 8/8/7
g default
v 0.974662 3.239109 1.002822
v 0.308110 3.239109 -1.337420
v -1.385323 3.239109 0.409952
v -0.034184 3.565840 0.025118
vt 0.421875 0.708434
vt 0.421875 0.979066
vt 0.656250 0.843750
vt 0.500000 0.837500
vn 0.162667 0.974006 0.157645
vn 0.055192 0.974006 -0.219697
vn 0.000000 1.000000 -0.000000
vn -0.217859 0.974006 0.062051
s 1
g pCylinder6
usemtl initialShadingGroup
f 9/10/9 10/9/10 12/12/11
f 10/9/10 11/11/12 12/12/11
f 11/11/12 9/10/9 12/12/11
g default
v 1.171465 1.981299 -1.881285
v -2.252110 1.981299 -0.117369
v 0.987273 1.981299 1.965576
v -0.031124 2.498424 -0.011026
vt 0.421875 0.708434
vt 0.421875 0.979066
vt 0.656250 0.843750
vt 0.500000 0.837500
vn 0.122515 0.974006 -0.190534
vn -0.226264 0.974006 -0.010834
vn -0.000000 1.000000 -0.000000
vn 0.103750 0.974006 0.201367
s 1
g pCylinder3
usemtl initialShadingGroup
f 13/14/13 14/13/14 16/16/15
f 14/13/14 15/15/16 16/16/15
f 15/15/16 13/14/13 16/16/15
g default
v -0.299229 3.896680 -1.192000
v -0.954942 3.896680 0.808065
v 1.105021 3.896680 0.375896
v -0.049717 4.179300 -0.002680
vt 0.421875 0.708434
vt 0.421875 0.979066
vt 0.656250 0.843750
vt 0.500000 0.837500
vn -0.046511 0.974006 -0.221697
vn -0.168740 0.974006 0.151128
vn -0.000000 1.000000 0.000000
vn 0.215251 0.974006 0.070569
s 1
g pCylinder8
usemtl initialShadingGroup
f 17/18/17 18/17/18 20/20/19
f 18/17/18 19/19/20 20/20/19
f 19/19/20 17/18/17 20/20/19
g default
v 0.105445 0.122451 -0.122227
v 0.015969 0.122451 -0.211703
v -0.106258 0.122451 -0.244454
v -0.228485 0.122451 -0.211703
v -0.317961 0.122451 -0.122227
v -0.350712 0.122451 0.000000
v -0.317961 0.122451 0.122227
v -0.228485 0.122451 0.211703
v -0.106258 0.122451 0.244454
v 0.015969 0.122451 0.211703
v 0.105445 0.122451 0.122227
v 0.138196 0.122451 0.000000
v -0.070256 4.783685 -0.020786
v -0.085472 4.783685 -0.036002
v -0.106258 4.783685 -0.041572
v -0.127044 4.783685 -0.036002
v -0.142260 4.783685 -0.020786
v -0.147830 4.783685 0.000000
v -0.142260 4.783685 0.020786
v -0.127044 4.783685 0.036002
v -0.106258 4.783685 0.041572
v -0.085472 4.783685 0.036002
v -0.070256 4.783685 0.020786
v -0.064686 4.783685 0.000000
v -0.106258 0.122451 0.000000
v -0.106258 4.783685 0.000000
vt 0.635316 0.078125
vt 0.578125 0.020934
vt 0.500000 0.000000
vt 0.421875 0.020934
vt 0.364684 0.078125
vt 0.343750 0.156250
vt 0.364684 0.234375
vt 0.421875 0.291566
vt 0.500000 0.312500
vt 0.578125 0.291566
vt 0.635316 0.234375
vt 0.656250 0.156250
vt 0.375000 0.312500
vt 0.395833 0.312500
vt 0.416667 0.312500
vt 0.437500 0.312500
vt 0.458333 0.312500
vt 0.479167 0.312500
vt 0.500000 0.312500
vt 0.520833 0.312500
vt 0.541667 0.312500
vt 0.562500 0.312500
vt 0.583333 0.312500
vt 0.604167 0.312500
vt 0.625000 0.312500
vt 0.375000 0.688440
vt 0.395833 0.688440
vt 0.416667 0.688440
vt 0.437500 0.688440
vt 0.458333 0.688440
vt 0.479167 0.688440
vt 0.500000 0.688440
vt 0.520833 0.688440
vt 0.541667 0.688440
vt 0.562500 0.688440
vt 0.583333 0.688440
vt 0.604167 0.688440
vt 0.625000 0.688440
vt 0.635316 0.765625
vt 0.578125 0.708434
vt 0.500000 0.687500
vt 0.421875 0.708434
vt 0.364684 0.765625
vt 0.343750 0.843750
vt 0.364684 0.921875
vt 0.421875 0.979066
vt 0.500000 1.000000
vt 0.578125 0.979066
vt 0.635316 0.921875
vt 0.656250 0.843750
vt 0.500000 0.150000
vt 0.500000 0.837500
vn 0.706483 0.042005 -0.706482
vn 0.706483 0.042005 -0.706482
vn 0.706483 0.042005 -0.706482
vn 0.706483 0.042005 -0.706482
vn 0.258592 0.042005 -0.965073
vn 0.258592 0.042005 -0.965073
vn 0.258592 0.042005 -0.965073
vn 0.258592 0.042005 -0.965073
vn -0.258592 0.042005 -0.965073
vn -0.258592 0.042005 -0.965073
vn -0.258592 0.042005 -0.965073
vn -0.258592 0.042005 -0.965073
vn -0.706483 0.042005 -0.706483
vn -0.706483 0.042005 -0.706483
vn -0.706483 0.042005 -0.706483
vn -0.706483 0.042005 -0.706483
vn -0.965073 0.042005 -0.258591
vn -0.965073 0.042005 -0.258591
vn -0.965073 0.042005 -0.258591
vn -0.965073 0.042005 -0.258591
vn -0.965073 0.042005 0.258591
vn -0.965073 0.042005 0.258591
vn -0.965073 0.042005 0.258591
vn -0.965073 0.042005 0.258591
vn -0.706483 0.042005 0.706483
vn -0.706483 0.042005 0.706483
vn -0.706483 0.042005 0.706483
vn -0.706483 0.042005 0.706483
vn -0.258592 0.042005 0.965073
vn -0.258592 0.042005 0.965073
vn -0.258592 0.042005 0.965073
vn -0.258592 0.042005 0.965073
vn 0.258592 0.042005 0.965073
vn 0.258592 0.042005 0.965073
vn 0.258592 0.042005 0.965073
vn 0.258592 0.042005 0.965073
vn 0.706483 0.042005 0.706482
vn 0.706483 0.042005 0.706482
vn 0.706483 0.042005 0.706482
vn 0.706483 0.042005 0.706482
vn 0.965073 0.042005 0.258592
vn 0.965073 0.042005 0.258592
vn 0.965073 0.042005 0.258592
vn 0.965073 0.042005 0.258592
vn 0.965073 0.042005 -0.258592
vn 0.965073 0.042005 -0.258592
vn 0.965073 0.042005 -0.258592
vn 0.965073 0.042005 -0.258592
vn 0.000000 -1.000000 0.000000
vn 0.000000 -1.000000 -0.000000
vn 0.000000 -1.000000 0.000000
vn 0.000000 -1.000000 0.000000
vn 0.000000 -1.000000 0.000000
vn 0.000000 -1.000000 0.000000
vn 0.000000 -1.000000 0.000000
vn 0.000000 -1.000000 0.000000
vn 0.000000 -1.000000 -0.000000
vn 0.000000 -1.000000 0.000000
vn 0.000000 -1.000000 -0.000000
vn 0.000000 -1.000000 -0.000000
vn 0.000000 -1.000000 0.000000
vn 0.000000 1.000000 0.000000
vn 0.000000 1.000000 0.000000
vn 0.000000 1.000000 0.000001
vn 0.000000 1.000000 0.000000
vn 0.000000 1.000000 -0.000009
vn 0.000000 1.000000 0.000009
vn 0.000000 1.000000 0.000000
vn 0.000000 1.000000 -0.000000
vn 0.000000 1.000000 0.000017
vn 0.000000 1.000000 0.000000
vn 0.000000 1.000000 0.000000
vn 0.000000 1.000000 0.000000
vn 0.000000 1.000000 0.000000
s off
g pCylinder1
usemtl initialShadingGroup
f 21/33/21 22/34/22 34/47/23 33/46/24
f 22/34/25 23/35/26 35/48/27 34/47/28
f 23/35/29 24/36/30 36/49/31 35/48/32
f 24/36/33 25/37/34 37/50/35 36/49/36
f 25/37/37 26/38/38 38/51/39 37/50/40
f 26/38/41 27/39/42 39/52/43 38/51/44
f 27/39/45 28/40/46 40/53/47 39/52/48
f 28/40/49 29/41/50 41/54/51 40/53/52
f 29/41/53 30/42/54 42/55/55 41/54/56
f 30/42/57 31/43/58 43/56/59 42/55/60
f 31/43/61 32/44/62 44/57/63 43/56/64
f 32/44/65 21/45/66 33/58/67 44/57/68
s 1
f 22/22/69 21/21/70 45/71/71
f 23/23/72 22/22/69 45/71/71
f 24/24/73 23/23/72 45/71/71
f 25/25/74 24/24/73 45/71/71
f 26/26/75 25/25/74 45/71/71
f 27/27/76 26/26/75 45/71/71
f 28/28/77 27/27/76 45/71/71
f 29/29/78 28/28/77 45/71/71
f 30/30/79 29/29/78 45/71/71
f 31/31/80 30/30/79 45/71/71
f 32/32/81 31/31/80 45/71/71
f 21/21/70 32/32/81 45/71/71
s 2
f 33/69/82 34/68/83 46/72/84
f 34/68/83 35/67/85 46/72/84
f 35/67/85 36/66/86 46/72/84
f 36/66/86 37/65/87 46/72/84
f 37/65/87 38/64/88 46/72/84
f 38/64/88 39/63/89 46/72/84
f 39/63/89 40/62/90 46/72/84
f 40/62/90 41/61/91 46/72/84
f 41/61/91 42/60/92 46/72/84
f 42/60/92 43/59/93 46/72/84
f 43/59/93 44/70/94 46/72/84
f 44/70/94 33/69/82 46/72/84
g default
v 1.212517 3.508001 -0.626532
v -1.199241 3.508001 -0.756448
v -0.105873 3.508001 1.397153
v -0.030866 3.832306 0.004725
vt 0.421875 0.708434
vt 0.421875 0.979066
vt 0.656250 0.843750
vt 0.500000 0.837500
vn 0.201983 0.974006 -0.102545
vn -0.189799 0.974006 -0.123650
vn -0.000000 1.000000 -0.000000
vn -0.012185 0.974006 0.226195
s 1
g pCylinder7
usemtl initialShadingGroup
f 47/74/95 48/73/96 50/76/97
f 48/73/96 49/75/98 50/76/97
f 49/75/98 47/74/95 50/76/97
g default
v -0.186915 4.527526 0.663526
v 0.577196 4.527526 -0.181120
v -0.536344 4.527526 -0.420537
v -0.048688 4.680463 0.020623
vt 0.421875 0.708434
vt 0.421875 0.979066
vt 0.656250 0.843750
vt 0.500000 0.837500
vn -0.047616 0.974006 0.221462
vn 0.215600 0.974006 -0.069494
vn -0.000000 1.000000 0.000000
vn -0.167985 0.974006 -0.151967
s 1
g pCylinder10
usemtl initialShadingGroup
f 51/78/99 52/77/100 54/80/101
f 52/77/100 53/79/102 54/80/101
f 53/79/102 51/78/99 54/80/101
g default
v -1.335356 2.928269 1.342224
v 1.710195 2.928269 0.473932
v -0.564544 2.928269 -1.729447
v -0.063235 3.353502 0.028903
vt 0.421875 0.708434
vt 0.421875 0.979066
vt 0.656250 0.843750
vt 0.500000 0.837500
vn -0.157604 0.974006 0.162708
vn 0.219711 0.974006 0.055135
vn -0.000000 1.000000 0.000000
vn -0.062108 0.974006 -0.217843
s 1
g pCylinder5
usemtl initialShadingGroup
f 55/82/103 56/81/104 58/84/105
f 56/81/104 57/83/106 58/84/105
f 57/83/106 55/82/103 58/84/105
g default
v -1.598177 2.525136 -1.521803
v -0.611616 2.525136 2.077227
v 2.011955 2.525136 -0.576675
v -0.065946 3.026218 -0.007083
vt 0.421875 0.708434
vt 0.421875 0.979066
vt 0.656250 0.843750
vt 0.500000 0.837500
vn -0.161094 0.974006 -0.159253
vn -0.057370 0.974006 0.219138
vn -0.000000 1.000000 0.000000
vn 0.218464 0.974006 -0.059885
s 1
g pCylinder4
usemtl initialShadingGroup
f 59/86/107 60/85/108 62/88/109
f 60/85/108 61/87/110 62/88/109
f 61/87/110 59/86/107 62/88/109
